<?xml version="1.0"?>
<svg xmlns="http://www.w3.org/2000/svg" width="1200" height="630" viewBox="0 0 1200 630">
  <title>RevForgeHQ — Open Graph 1200×630 (light)</title>
  <rect width="1200" height="630" fill="#f4ede0"></rect>
  <defs><pattern id="g" width="40" height="40" patternUnits="userSpaceOnUse">
    <path d="M40 0H0V40" fill="none" stroke="rgba(13,12,10,0.025)" stroke-width="1"></path></pattern></defs>
  <rect width="1200" height="630" fill="url(#g)"></rect>
  <g transform="translate(90 175) scale(2.8)">
    <polygon points="14.5,29.5 50,9 85.5,29.5 50,50" fill="#0d0c0a"></polygon>
    <polygon points="85.5,29.5 85.5,70.5 50,91 50,50" fill="#8a7444"></polygon>
    <polygon points="14.5,29.5 50,50 50,91 14.5,70.5" fill="#d4b878"></polygon>
    <g stroke="rgba(13,12,10,0.18)" stroke-width="0.8" fill="none" stroke-linejoin="round">
      <line x1="50" y1="9" x2="50" y2="50"></line>
      <line x1="50" y1="91" x2="50" y2="50"></line>
      <line x1="14.5" y1="29.5" x2="85.5" y2="29.5"></line>
    </g>
  </g>
  <text x="420" y="305" font-family="Playfair Display, &#34;EB Garamond&#34;, Georgia, serif" font-size="96" fill="#0d0c0a" font-weight="700" letter-spacing="-1.6">
    <tspan>Rev</tspan><tspan font-style="italic" font-weight="700" fill="#8a7444">Forge</tspan><tspan>HQ</tspan>
  </text>
  <text x="420" y="345" font-family="&#34;JetBrains Mono&#34;, ui-monospace, Menlo, monospace" font-size="14" fill="#6e6657" letter-spacing="3.2">AI CONSULTING FOR REVENUE OPERATIONS</text>
  <text x="420" y="430" font-family="Playfair Display, &#34;EB Garamond&#34;, Georgia, serif" font-style="italic" font-weight="700" font-size="38" fill="#0d0c0a" letter-spacing="-0.5">Rearchitecting revenue ops</text>
  <text x="420" y="478" font-family="Playfair Display, &#34;EB Garamond&#34;, Georgia, serif" font-style="italic" font-weight="700" font-size="38" fill="#8a7444" letter-spacing="-0.5">for the AI era.</text>
  <text x="420" y="540" font-family="&#34;JetBrains Mono&#34;, ui-monospace, Menlo, monospace" font-size="14" fill="#8a7444" letter-spacing="2">REVFORGEHQ.COM →</text>
</svg>